<svg width="34" height="34" viewBox="0 0 34 34" fill="none" xmlns="http://www.w3.org/2000/svg">
<g clip-path="url(#clip0_610_75)">
<path d="M30.5334 5.6662C30.4047 5.65293 30.2749 5.65293 30.1462 5.6662H3.70173C3.53224 5.66881 3.36388 5.69422 3.20117 5.74175L16.8484 19.3323L30.5334 5.6662Z" fill="#FFC700"/>
<path d="M31.9312 6.97852L18.18 20.673C17.8261 21.0248 17.3474 21.2222 16.8484 21.2222C16.3494 21.2222 15.8706 21.0248 15.5167 20.673L1.88838 7.0824C1.84648 7.23639 1.82427 7.39506 1.82227 7.55463V26.4435C1.82227 26.9445 2.02127 27.4249 2.37551 27.7792C2.72974 28.1334 3.21019 28.3324 3.71115 28.3324H30.1556C30.6566 28.3324 31.137 28.1334 31.4912 27.7792C31.8455 27.4249 32.0445 26.9445 32.0445 26.4435V7.55463C32.037 7.35786 31.9987 7.16347 31.9312 6.97852ZM5.00504 26.4435H3.69227V25.093L10.5584 18.2835L11.89 19.6152L5.00504 26.4435ZM30.1367 26.4435H28.8145L21.9295 19.6152L23.2612 18.2835L30.1273 25.093L30.1367 26.4435Z" fill="#FFC700"/>
</g>
<defs>
<clipPath id="clip0_610_75">
<rect width="34" height="34" fill="white"/>
</clipPath>
</defs>
</svg>
