<svg width="36" height="36" viewBox="0 0 36 36" fill="none" xmlns="http://www.w3.org/2000/svg">
<path d="M18.0004 1C14.8644 1.00354 11.8578 2.2464 9.64031 4.45591C7.4228 6.66541 6.17543 9.66112 6.17188 12.7858C6.17188 22.8708 17.516 34.7372 17.9744 35.0559C18.1552 35.1821 17.7797 35 18.0004 35C17.8196 35.1262 18.2212 35 18.0004 35C18.4588 34.6812 29.829 22.8708 29.829 12.7858C29.8255 9.66112 28.5781 6.66541 26.3606 4.45591C24.1431 2.2464 21.1365 1.00354 18.0004 1ZM18.0004 8.50008C18.8512 8.50008 19.6828 8.75143 20.3901 9.22236C21.0975 9.69328 21.6488 10.3626 21.9743 11.1457C22.2999 11.9289 22.3851 12.7906 22.2191 13.6219C22.0531 14.4533 21.6435 15.2169 21.0419 15.8163C20.4404 16.4157 19.674 16.8239 18.8396 16.9892C18.0052 17.1546 17.1404 17.0697 16.3544 16.7454C15.5684 16.421 14.8967 15.8717 14.424 15.1669C13.9514 14.4621 13.6991 13.6335 13.6991 12.7858C13.6991 11.6492 14.1523 10.5591 14.959 9.75534C15.7656 8.95161 16.8597 8.50008 18.0004 8.50008Z" fill="#FFC700"/>
</svg>
