<svg width="32" height="35" viewBox="0 0 32 35" fill="none" xmlns="http://www.w3.org/2000/svg">
<path d="M5 5.25C5 2.90586 6.71222 1 8.81818 1H22.1818C24.2878 1 26 2.90586 26 5.25V30.75C26 33.0941 24.2878 35 22.1818 35H8.81818C6.71222 35 5 33.0941 5 30.75V5.25ZM17.4091 30.75C17.4091 29.5746 16.556 28.625 15.5 28.625C14.444 28.625 13.5909 29.5746 13.5909 30.75C13.5909 31.9254 14.444 32.875 15.5 32.875C16.556 32.875 17.4091 31.9254 17.4091 30.75ZM22.1818 5.25H8.81818V26.5H22.1818V5.25Z" fill="white"/>
</svg>
