<svg width="34" height="34" viewBox="0 0 34 34" fill="none" xmlns="http://www.w3.org/2000/svg">
<path d="M25.5 13.8125H23.375C23.3742 12.9674 23.0381 12.1571 22.4405 11.5595C21.8429 10.9619 21.0326 10.6258 20.1875 10.625V8.5C21.5959 8.50169 22.9462 9.06194 23.9421 10.0579C24.9381 11.0538 25.4983 12.4041 25.5 13.8125Z" fill="#FFC700"/>
<path d="M29.7509 13.8125H27.6259C27.6237 11.8407 26.8394 9.9502 25.4451 8.55589C24.0507 7.16157 22.1603 6.37726 20.1884 6.37501V4.25001C22.7237 4.25282 25.1543 5.2612 26.947 7.05391C28.7397 8.84661 29.7481 11.2772 29.7509 13.8125ZM21.6047 22.8246L23.9847 20.4446C24.3033 20.126 24.7084 19.9078 25.1498 19.8172C25.5912 19.7265 26.0494 19.7673 26.4678 19.9346L29.3663 21.0949C29.7935 21.2658 30.1597 21.5608 30.4177 21.9419C30.6756 22.3229 30.8135 22.7725 30.8134 23.2326V28.5037C30.8142 28.817 30.751 29.1271 30.6277 29.4152C30.5044 29.7032 30.3237 29.963 30.0965 30.1787C29.8693 30.3945 29.6005 30.5616 29.3065 30.6698C29.0125 30.7781 28.6995 30.8252 28.3867 30.8083C8.06956 29.5439 3.96619 12.3356 3.20437 5.74601C3.16748 5.42385 3.1992 5.09754 3.29746 4.78852C3.39572 4.47951 3.55829 4.1948 3.77448 3.95312C3.99067 3.71144 4.25557 3.51827 4.55177 3.38631C4.84796 3.25436 5.16874 3.1866 5.493 3.18751H10.6706C11.1307 3.18749 11.5803 3.32535 11.9613 3.58329C12.3424 3.84123 12.6374 4.20742 12.8083 4.63463L13.9675 7.53313C14.1348 7.95152 14.1756 8.40979 14.085 8.85117C13.9943 9.29254 13.7761 9.69762 13.4575 10.0162L11.0775 12.3962C11.0775 12.3962 12.3971 21.6739 21.6047 22.8246Z" fill="#FFC700"/>
</svg>
