<svg width="32" height="32" viewBox="0 0 32 32" fill="none" xmlns="http://www.w3.org/2000/svg">
<path d="M31.0869 22.6124L24.0869 19.6124C23.7878 19.485 23.4555 19.4581 23.1399 19.5359C22.8243 19.6137 22.5425 19.7919 22.3369 20.0437L19.2369 23.8312C14.3717 21.5373 10.4564 17.622 8.1625 12.7568L11.95 9.6568C12.2023 9.4516 12.3809 9.16978 12.4587 8.85402C12.5365 8.53825 12.5093 8.20573 12.3813 7.9068L9.38125 0.906797C9.2407 0.584552 8.99211 0.32145 8.67834 0.162858C8.36458 0.0042665 8.00532 -0.0398745 7.6625 0.0380466L1.1625 1.53805C0.831981 1.61437 0.537091 1.80047 0.325959 2.06597C0.114828 2.33148 -7.61381e-05 2.6607 3.78513e-08 2.99992C3.78513e-08 19.0312 12.9937 31.9999 29 31.9999C29.3393 32.0001 29.6687 31.8853 29.9343 31.6742C30.2 31.463 30.3862 31.168 30.4625 30.8374L31.9625 24.3374C32.0399 23.9929 31.9948 23.6322 31.835 23.3174C31.6752 23.0025 31.4107 22.7533 31.0869 22.6124Z" fill="white"/>
</svg>
