<svg width="88" height="88" viewBox="0 0 88 88" fill="none" xmlns="http://www.w3.org/2000/svg">
<circle cx="44" cy="44" r="42.5" stroke="#FEB700" stroke-width="3"/>
<g clip-path="url(#clip0_627_7)">
<path fill-rule="evenodd" clip-rule="evenodd" d="M64.1755 49.5894C64.1755 49.5894 68.4606 53.8214 69.5206 55.7798C69.5412 55.808 69.5573 55.8393 69.5683 55.8725C70.0002 56.596 70.1062 57.1631 69.8942 57.5818C69.5365 58.2734 68.3254 58.6206 67.9147 58.6497H60.341C59.8136 58.6497 58.7165 58.5119 57.3809 57.5897C56.3607 56.8769 55.3457 55.7029 54.3626 54.5555C52.8945 52.8515 51.6251 51.3728 50.3399 51.3728C50.1776 51.3725 50.0163 51.3993 49.8629 51.4523C48.8903 51.7597 47.6554 53.1457 47.6554 56.8371C47.6554 57.9925 46.7438 58.6497 46.1052 58.6497H42.6363C41.4544 58.6497 35.3011 58.2363 29.8448 52.4832C23.1588 45.4395 17.1539 31.3097 17.0956 31.1851C16.722 30.2709 17.5064 29.7727 18.3544 29.7727H26.0023C27.0278 29.7727 27.3617 30.3928 27.5949 30.9493C27.8652 31.5879 28.8669 34.1425 30.5099 37.0125C33.1705 41.6818 34.8056 43.5818 36.112 43.5818C36.3575 43.5825 36.5988 43.5185 36.8116 43.3963C38.5182 42.4582 38.2002 36.3632 38.1207 35.1071C38.1207 34.8633 38.1181 32.3856 37.2436 31.1878C36.6182 30.3292 35.5529 29.9953 34.9089 29.8734C35.0812 29.6243 35.4469 29.2427 35.9159 29.0174C37.0846 28.4344 39.1966 28.3496 41.2928 28.3496H42.4561C44.7298 28.3814 45.3181 28.5272 46.1449 28.7365C47.8091 29.134 47.8409 30.2126 47.6952 33.8855C47.6528 34.9349 47.6077 36.1168 47.6077 37.508C47.6077 37.8048 47.5945 38.1361 47.5945 38.4726C47.5441 40.3568 47.4779 42.4794 48.8082 43.3513C48.9807 43.4587 49.18 43.5157 49.3832 43.5156C49.8443 43.5156 51.225 43.5156 54.9694 37.0893C56.6124 34.2512 57.8844 30.9042 57.9719 30.6525C58.0461 30.512 58.2687 30.1172 58.539 29.9582C58.7313 29.8559 58.9466 29.8048 59.1644 29.8098H68.1611C69.1416 29.8098 69.8068 29.9582 69.9366 30.3292C70.1539 30.9307 69.8942 32.7672 65.7867 38.3216C65.0951 39.2464 64.4882 40.0467 63.9556 40.7463C60.2323 45.6329 60.2323 45.8794 64.1755 49.5894Z" fill="#FEB700"/>
</g>
<defs>
<clipPath id="clip0_627_7">
<rect width="53" height="53" fill="white" transform="translate(17 17)"/>
</clipPath>
</defs>
</svg>
