<svg width="88" height="88" viewBox="0 0 88 88" fill="none" xmlns="http://www.w3.org/2000/svg">
<circle cx="44" cy="44" r="42.5" stroke="#FEB700" stroke-width="3"/>
<path d="M60.2965 27.6931C58.1772 25.5632 55.653 23.8744 52.8709 22.7252C50.0889 21.5761 47.1047 20.9897 44.0925 21.0001C31.4714 21.0001 21.1849 31.2351 21.1849 43.7931C21.1849 47.8181 22.2482 51.728 24.2362 55.178L21 67L33.1357 63.826C36.4874 65.643 40.2553 66.609 44.0925 66.609C56.7136 66.609 67 56.374 67 43.8161C67 37.7211 64.6191 31.9941 60.2965 27.6931ZM44.0925 62.745C40.6714 62.745 37.3196 61.825 34.3839 60.1L33.6905 59.686L26.4784 61.572L28.397 54.58L27.9347 53.867C26.034 50.8471 25.0247 47.3563 25.0221 43.7931C25.0221 33.3511 33.5749 24.8411 44.0693 24.8411C49.1548 24.8411 53.9397 26.8191 57.5226 30.4071C59.2967 32.1642 60.7026 34.2542 61.6589 36.556C62.6152 38.8577 63.1028 41.3254 63.0935 43.8161C63.1397 54.258 54.5869 62.745 44.0925 62.745ZM54.5407 48.5771C53.9628 48.3011 51.1427 46.9211 50.6342 46.7141C50.1025 46.5301 49.7327 46.4381 49.3397 46.9901C48.9467 47.5651 47.8603 48.8531 47.5367 49.2211C47.2131 49.6121 46.8663 49.6581 46.2884 49.3591C45.7105 49.0831 43.8613 48.4621 41.6884 46.5301C39.9779 45.0121 38.8452 43.1491 38.4985 42.5741C38.1749 41.9991 38.4523 41.7001 38.7528 41.4011C39.007 41.1481 39.3307 40.7341 39.608 40.4121C39.8854 40.0901 40.001 39.8371 40.1859 39.4691C40.3709 39.0781 40.2784 38.7561 40.1397 38.4801C40.001 38.2041 38.8452 35.3981 38.3829 34.2481C37.9206 33.1441 37.4352 33.2821 37.0884 33.2591H35.9789C35.5859 33.2591 34.9849 33.3971 34.4533 33.9721C33.9447 34.5471 32.4653 35.9271 32.4653 38.7331C32.4653 41.5391 34.5226 44.2531 34.8 44.6211C35.0774 45.0121 38.8452 50.762 44.5779 53.223C45.9417 53.821 47.005 54.166 47.8372 54.419C49.201 54.856 50.4492 54.787 51.4432 54.649C52.5528 54.488 54.8412 53.269 55.3035 51.935C55.7889 50.601 55.7889 49.4741 55.6271 49.2211C55.4653 48.9681 55.1186 48.8531 54.5407 48.5771Z" fill="#FFC700"/>
</svg>
