<svg width="164" height="173" viewBox="0 0 164 173" fill="none" xmlns="http://www.w3.org/2000/svg">
<rect x="3.23682" width="160.763" height="149" rx="74.5" fill="#EFF2FD"/>
<g clip-path="url(#clip0_5687_274)">
<path d="M143.011 57.1205C142.523 52.7871 141.861 48.4051 141.048 44.2759C140.637 42.1925 140.308 40.1733 139.709 38.2575C139.131 36.4075 138.624 34.4902 137.931 32.9106C137.896 32.8819 137.863 32.8192 137.835 32.7788C136.542 30.9285 135.097 27.653 131.767 27.8389C129.359 27.9728 127.598 30.7599 126.502 32.8685C125.798 34.2216 125.273 35.6293 124.814 37.0622C124.909 37.0951 125.022 37.1094 125.162 37.0906C127.145 39.8945 128.235 44.2732 129.089 48.5877C130.697 56.7203 131.208 65.2581 131.767 74.2756C132.576 87.3837 133.868 102.118 132.214 115.141C130.77 126.496 130.274 132.002 118.744 138.723C128.174 139.946 138.455 135.427 140.957 125.562C141.967 121.583 142.72 117.241 143.189 112.985C144.176 104.004 144.706 94.8388 144.706 84.9611C144.705 75.3 144.008 65.9777 143.011 57.1205Z" fill="#4D3D87"/>
<path d="M131.767 27.8386C135.096 27.6527 136.541 30.9282 137.834 32.7785C137.863 32.8192 137.896 32.8816 137.931 32.9103C137.959 32.9345 137.987 32.9339 138.013 32.8679C136.506 29.3313 135.451 26.8477 133.373 24.5145C131.832 22.7869 129.74 21.3564 127.369 20.5944C126.875 20.4357 125.478 21.3286 124.962 21.2312C124.304 21.1072 124.522 20.0129 123.838 20.0013C122.436 19.977 120.988 20.2042 119.541 20.742C115.664 22.1833 112.104 25.921 110.349 30.1737C109.464 32.3228 108.741 34.6922 108.119 37.2696C107.476 39.9304 106.778 42.7708 107.048 45.5328C107.335 48.4891 108.995 50.4175 110.795 52.0903C111.964 53.1751 113.346 54.5063 115.347 54.5159C119.001 54.5326 120.462 51.0181 121.415 48.2283C122.28 45.6993 123.065 43.0798 123.824 40.4136C124.145 39.2894 124.46 38.1688 124.815 37.062C125.273 35.6291 125.798 34.221 126.502 32.8682C127.597 30.7597 129.359 27.9725 131.767 27.8386Z" fill="#8F7ECE"/>
<path d="M117.666 34.1258C118.804 31.1169 120.271 28.2811 122.216 25.6819C123.608 23.8249 125.431 22.4225 127.124 20.8316C127.19 20.7703 127.271 20.6887 127.36 20.5922C126.229 20.23 125.035 20.0209 123.809 20.0029C122.418 20.8749 121.232 21.98 120.165 23.0773C115.112 28.2718 112.617 34.4247 110.885 42.6589C110.323 45.3247 109.867 47.505 110.081 50.6531C110.098 50.9092 110.128 51.1952 110.171 51.4913C110.377 51.6946 110.585 51.8945 110.794 52.0902C111.279 52.5402 111.802 53.0321 112.389 53.4549C112.534 53.0644 112.639 52.5755 112.758 52.0902C114.288 45.8841 115.659 39.4309 117.666 34.1258Z" fill="#EFAD1B"/>
<path fill-rule="evenodd" clip-rule="evenodd" d="M132.117 32.4046C132.716 31.8646 133.629 32.6598 134.08 33.2126C134.618 33.8745 135.175 35.0716 135.508 36.087C135.902 37.2952 136.265 38.6286 136.131 39.6801C136.049 40.3423 135.604 40.822 135.24 40.8474C134.151 40.9241 133.303 37.8579 133.008 37.0749C132.43 35.5312 131.762 34.0072 132.117 32.4046Z" fill="white"/>
<path fill-rule="evenodd" clip-rule="evenodd" d="M136.398 44.8898C137.899 44.1968 138.671 49.1834 137.29 49.1111C136.524 49.0713 135.39 45.3551 136.398 44.8898Z" fill="white"/>
<path d="M25.7769 57.1207C26.2658 52.7874 26.9264 48.4054 27.741 44.2762C28.1501 42.1927 28.4811 40.1736 29.0787 38.2578C29.6565 36.4077 30.1644 34.4904 30.8576 32.9108C30.8909 32.8821 30.9253 32.8194 30.9541 32.7791C32.2446 30.9287 33.6919 27.6533 37.0216 27.8391C39.4296 27.973 41.1894 30.7602 42.2858 32.8687C42.9894 34.2218 43.5158 35.6296 43.9741 37.0625C43.8776 37.0953 43.7654 37.1097 43.625 37.0908C41.6419 39.8947 40.5518 44.2735 39.6977 48.588C38.0889 56.7206 37.578 65.2584 37.0216 74.2758C36.2109 87.3839 34.92 102.118 36.5751 115.141C38.0167 126.497 38.5134 132.003 50.0426 138.723C40.6135 139.946 30.3339 135.427 27.8295 125.562C26.8204 121.584 26.0666 117.241 25.5997 112.985C24.6128 104.004 24.082 94.8391 24.082 84.9613C24.0817 75.3002 24.7779 65.978 25.7769 57.1207Z" fill="#4D3D87"/>
<path d="M37.0213 27.8387C33.6916 27.6528 32.2443 30.9283 30.9538 32.7786C30.925 32.8193 30.8909 32.8817 30.8573 32.9104C30.8276 32.9346 30.7994 32.934 30.7754 32.868C32.2817 29.3314 33.3353 26.8478 35.4141 24.5145C36.9492 22.793 39.0318 21.3664 41.3919 20.6026C41.9403 20.4251 43.5161 20.9519 44.0908 20.8506C44.6953 20.7439 44.3001 20.0136 44.9265 20.0016C46.3361 19.9747 47.7908 20.2013 49.2458 20.7421C53.1238 22.1834 56.6837 25.9211 58.4373 30.1738C59.3241 32.3229 60.0461 34.6923 60.6692 37.2697C61.3099 39.9305 62.0084 42.7709 61.7383 45.5329C61.4512 48.4892 59.7917 50.4176 57.9908 52.0904C56.8247 53.1752 55.4421 54.5064 53.4409 54.516C49.7861 54.5327 48.326 51.0182 47.3719 48.2284C46.508 45.6994 45.723 43.0798 44.9636 40.4137C44.6424 39.2895 44.3265 38.1689 43.9736 37.062C43.5152 35.6292 42.9888 34.2211 42.2852 32.8683C41.1895 30.7598 39.4296 27.9726 37.0213 27.8387Z" fill="#8F7ECE"/>
<path d="M51.121 34.1261C49.9831 31.1172 48.5147 28.2813 46.5696 25.6821C45.1782 23.8252 43.3553 22.4231 41.6608 20.8318C41.597 20.7706 41.5159 20.689 41.4277 20.5925C42.5568 20.2303 43.7508 20.0211 44.9769 20.0032C46.3668 20.8752 47.5552 21.9802 48.621 23.0775C53.6735 28.272 56.1706 34.4249 57.9013 42.6591C58.463 45.325 58.9187 47.5052 58.7062 50.6534C58.6881 50.9095 58.6575 51.1955 58.6144 51.4916C58.4093 51.6948 58.203 51.8947 57.991 52.0904C57.5059 52.5405 56.9852 53.0324 56.3968 53.4552C56.254 53.0646 56.1477 52.5757 56.0278 52.0904C54.4974 45.8844 53.127 39.4312 51.121 34.1261Z" fill="#EFAD1B"/>
<path fill-rule="evenodd" clip-rule="evenodd" d="M36.6687 32.4048C36.0682 31.8648 35.1556 32.66 34.7046 33.2128C34.167 33.8747 33.6098 35.0718 33.2773 36.0873C32.8824 37.2954 32.5196 38.6288 32.6532 39.6804C32.7366 40.3426 33.1817 40.8222 33.5459 40.8476C34.6346 40.9244 35.4818 37.8581 35.7758 37.0752C36.3558 35.5314 37.0232 34.0074 36.6687 32.4048Z" fill="white"/>
<path fill-rule="evenodd" clip-rule="evenodd" d="M32.3862 44.8901C30.8852 44.1971 30.114 49.1836 31.4935 49.1113C32.2601 49.0716 33.3935 45.3553 32.3862 44.8901Z" fill="white"/>
<path fill-rule="evenodd" clip-rule="evenodd" d="M103.812 45.7312C103.687 46.0124 99.7874 44.4378 98.6462 44.4331C98.659 42.7241 98.7403 37.7438 98.6326 36.1669C98.537 34.7558 98.4108 33.1858 97.6829 32.554C96.8288 31.813 93.9589 31.7096 91.982 31.5972C87.4831 31.3411 83.7728 31.2789 78.9981 31.2789C76.7351 31.2789 74.3366 31.3175 73.191 32.0224C71.3545 33.1538 70.7616 40.842 69.9135 43.0486C68.0853 43.0486 66.3073 42.996 64.6356 42.8361C64.5679 38.9642 65.7305 32.1402 67.0682 29.8972C68.7491 27.0828 71.6977 26.0175 76.1188 25.6947C76.3696 25.6765 76.6255 27.1545 76.8859 27.1408C78.812 27.0392 81.5323 27.1716 84.1697 27.3532C88.1374 27.6258 92.6532 25.8824 96.3799 26.5043C98.8318 26.9134 100.942 27.6996 102.329 29.2595C104.475 31.6749 104.394 41.4032 103.812 45.7312Z" fill="#4D3D87"/>
<path fill-rule="evenodd" clip-rule="evenodd" d="M77.0967 28.8355C77.8338 29.4018 79.7692 29.4425 81.4254 29.3666C84.8282 29.2106 87.7328 29.2599 91.0323 29.2599C92.7274 29.2599 94.7227 29.3743 95.4652 28.8352C96.0406 28.4169 96.2754 27.4311 96.3101 26.4945C92.5971 25.8864 88.1125 26.1303 84.1691 25.8595C81.5317 25.6781 78.8114 25.5454 76.8853 25.6471C76.6172 25.6611 76.3539 25.6787 76.0956 25.6979C76.0125 26.7482 76.3777 28.2815 77.0967 28.8355Z" fill="#8F7ECE"/>
<path fill-rule="evenodd" clip-rule="evenodd" d="M84.2792 35.322C92.228 34.941 99.6552 36.0619 105.708 37.8749C107.22 38.3274 108.662 38.9172 110.061 39.534C111.446 40.1439 112.81 40.7831 114.077 41.4913C116.652 42.9293 118.749 44.9028 120.461 47.1075C121.35 48.255 122.174 49.4124 122.869 50.7236C124.922 54.6039 126.318 59.2839 127.138 64.4655C128.218 71.2884 128.471 79.5997 128.154 87.1789C127.995 90.9402 127.594 94.6373 127.265 98.3261C126.941 101.969 126.557 105.64 126.25 109.346C125.628 116.87 125.492 124.683 124.094 131.257C123.737 132.941 123.269 134.449 122.616 135.809C121.957 137.18 121.244 138.421 120.248 139.426C119.219 140.464 118.003 141.164 116.529 141.724C115.798 142.001 115.089 142.298 114.288 142.489C113.496 142.678 112.664 142.799 111.753 142.914C106.569 143.571 100.679 143.851 94.7188 143.851C92.7775 143.851 90.8469 144.021 88.9285 144.021C86.9858 144.021 84.9953 144.063 82.9688 143.977C81.0382 143.896 79.0536 143.851 77.0927 143.851C73.1761 143.851 69.276 143.647 65.6396 143.34C63.731 143.178 61.9174 143.023 60.2282 142.744C58.5398 142.465 56.9827 141.957 55.6646 141.341C52.8891 140.042 51.3311 137.689 50.1688 134.83C49.0012 131.959 48.5503 128.472 48.1409 124.832C47.9375 123.036 47.7066 121.197 47.5911 119.344C47.4711 117.444 47.4035 115.54 47.2942 113.642C47.0846 109.994 46.6399 106.212 46.3225 102.581C45.662 95.0139 44.886 88.0153 44.8848 80.0318C44.8848 76.1315 45.1309 72.2638 45.5195 68.6354C45.9096 65.0019 46.5012 61.5487 47.3803 58.4663C48.2715 55.3358 49.2957 52.3941 50.8027 49.8723C53.0491 46.1136 56.0084 43.0297 59.9743 41.0225C61.272 40.3657 62.6127 39.679 64.0323 39.1082C66.8799 37.9634 69.998 37.1308 73.3741 36.4701C76.7305 35.8133 80.304 35.3214 84.1955 35.3214C84.2222 35.322 84.2504 35.3229 84.2792 35.322Z" fill="#FF5000"/>
<path fill-rule="evenodd" clip-rule="evenodd" d="M84.2792 35.322C92.228 34.941 99.6552 36.0619 105.708 37.8749C107.22 38.3274 108.662 38.9172 110.061 39.534C111.446 40.1439 112.81 40.7831 114.077 41.4913C116.652 42.9293 118.749 44.9028 120.461 47.1075C121.35 48.255 122.174 49.4124 122.869 50.7236C124.922 54.6039 126.318 59.2839 127.138 64.4655C128.218 71.2884 128.471 79.5997 128.154 87.1789C127.995 90.9402 127.594 94.6373 127.265 98.3261C126.941 101.969 126.557 105.64 126.25 109.346C125.628 116.87 125.492 124.683 124.094 131.257C123.737 132.941 123.269 134.449 122.616 135.809C121.957 137.18 121.244 138.421 120.248 139.426C119.219 140.464 118.003 141.164 116.529 141.724C115.798 142.001 115.089 142.298 114.288 142.489C113.496 142.678 112.664 142.799 111.753 142.914C106.569 143.571 100.679 143.851 94.7188 143.851C92.7775 143.851 90.8469 144.021 88.9285 144.021C86.9858 144.021 84.9953 144.063 82.9688 143.977C81.0382 143.896 79.0536 143.851 77.0927 143.851C73.1761 143.851 69.276 143.647 65.6396 143.34C63.731 143.178 61.9174 143.023 60.2282 142.744C58.5398 142.465 56.9827 141.957 55.6646 141.341C52.8891 140.042 51.3311 137.689 50.1688 134.83C49.0012 131.959 48.5503 128.472 48.1409 124.832C47.9375 123.036 47.7066 121.197 47.5911 119.344C47.4711 117.444 47.4035 115.54 47.2942 113.642C47.0846 109.994 46.6399 106.212 46.3225 102.581C45.662 95.0139 44.886 88.0153 44.8848 80.0318C44.8848 76.1315 45.1309 72.2638 45.5195 68.6354C45.9096 65.0019 46.5012 61.5487 47.3803 58.4663C48.2715 55.3358 49.2957 52.3941 50.8027 49.8723C53.0491 46.1136 56.0084 43.0297 59.9743 41.0225C61.272 40.3657 62.6127 39.679 64.0323 39.1082C66.8799 37.9634 69.998 37.1308 73.3741 36.4701C76.7305 35.8133 80.304 35.3214 84.1955 35.3214C84.2222 35.322 84.2504 35.3229 84.2792 35.322Z" fill="#FF5000"/>
<path d="M118.763 126.348C118.487 129.638 118.115 132.818 117.491 135.752C117.133 137.437 116.667 138.944 116.013 140.303C115.671 141.014 115.314 141.689 114.912 142.315C115.467 142.14 115.993 141.926 116.529 141.724C118.003 141.164 119.219 140.464 120.248 139.426C121.244 138.422 121.957 137.18 122.616 135.809C123.269 134.449 123.737 132.942 124.094 131.257C124.513 129.293 124.815 127.219 125.055 125.075C123.029 125.075 120.159 125.67 118.763 126.348Z" fill="#EFAD1B"/>
<path opacity="0.21" d="M120.249 139.426C121.245 138.422 121.958 137.18 122.617 135.809C123.269 134.449 123.737 132.942 124.095 131.257C125.492 124.683 125.628 116.87 126.25 109.346C126.558 105.64 126.942 101.969 127.266 98.3262C127.594 94.6375 127.995 90.9404 128.154 87.179C128.472 79.5999 128.219 71.2885 127.138 64.4657C126.319 59.284 124.923 54.6038 122.869 50.7238C122.175 49.4125 121.351 48.2552 120.461 47.1077C118.749 44.9029 116.652 42.9295 114.078 41.4915C112.811 40.7833 111.446 40.1438 110.062 39.5342C108.662 38.9174 107.221 38.3275 105.709 37.8751C99.6557 36.0621 92.2285 34.9415 84.2797 35.3222C84.2509 35.3231 84.2227 35.3222 84.1963 35.3222C80.3045 35.3222 76.731 35.8141 73.3749 36.4709C69.9988 37.1316 66.8807 37.9641 64.0331 39.1089C62.6135 39.6797 61.2728 40.3664 59.9751 41.0232C57.9611 42.0431 56.2072 43.3421 54.6738 44.865C55.5645 44.4221 56.4785 43.9864 57.4297 43.6039C60.2767 42.4591 63.3948 41.6266 66.7709 40.9659C70.1259 40.309 73.6999 39.8169 77.5908 39.8169C77.6196 39.8169 77.6478 39.8184 77.6766 39.8169C85.6254 39.4359 93.0526 40.5574 99.1062 42.3698C100.619 42.8225 102.059 43.4124 103.459 44.0291C104.843 44.6394 106.207 45.278 107.475 45.9862C110.048 47.4241 112.146 49.3976 113.857 51.602C114.748 52.7495 115.572 53.9072 116.266 55.2182C118.32 59.0987 119.716 63.779 120.536 68.9607C121.615 75.7811 121.866 84.093 121.549 91.6746C121.392 95.436 120.99 99.1316 120.662 102.82C120.338 106.463 119.954 110.136 119.647 113.84C119.026 121.366 118.889 129.177 117.492 135.751C117.134 137.437 116.668 138.944 116.014 140.303C115.672 141.014 115.315 141.689 114.913 142.314C115.468 142.139 115.994 141.925 116.53 141.724C118.004 141.164 119.219 140.464 120.249 139.426Z" fill="black"/>
<path fill-rule="evenodd" clip-rule="evenodd" d="M77.6763 39.8166C85.6251 39.4356 93.0523 40.5571 99.1059 42.3695C100.619 42.8223 102.058 43.4121 103.458 44.0289C104.842 44.6391 106.207 45.2777 107.475 45.9859C110.048 47.4239 112.146 49.3974 113.856 51.6018C114.748 52.7493 115.571 53.907 116.266 55.2179C118.32 59.0985 119.716 63.7788 120.535 68.9604C121.615 75.7809 121.866 84.0928 121.549 91.6744C121.391 95.4357 120.99 99.1313 120.662 102.82C120.337 106.463 119.954 110.136 119.647 113.84C119.303 118.007 119.107 122.263 118.764 126.347C117.936 129.321 117.398 132.282 116.774 135.215C116.416 136.901 115.567 138.13 114.912 139.49C114.252 140.861 113.859 141.877 112.863 142.879C111.834 143.917 111.044 144.577 109.572 145.136C108.841 145.415 108.541 145.707 107.742 145.896C106.949 146.086 106.043 146.649 105.133 146.763C103.599 146.957 102.022 147.764 100.381 147.894C96.475 148.205 92.3119 148.344 88.115 148.345C86.1746 148.345 84.2423 148.514 82.3238 148.515C80.3817 148.515 78.392 148.559 76.3656 148.473C74.4341 148.39 72.4498 148.345 70.4895 148.345C66.7756 148.345 63.0765 148.163 59.6016 147.882C59.4119 147.867 58.4215 146.973 58.233 146.956C56.3259 146.795 55.4608 146.568 53.7731 146.289C52.0815 146.012 51.29 145.763 49.9722 145.146C47.1973 143.848 46.0472 141.776 44.8849 138.919C43.7164 136.045 42.6453 133.093 42.2353 129.455C42.1246 128.473 41.3064 127.35 41.2022 126.347C41.1161 125.515 41.0401 124.678 40.9879 123.838C40.8679 121.94 40.8002 120.034 40.691 118.138C40.4814 114.487 40.0367 110.708 39.7193 107.074C39.0573 99.5076 38.2827 92.5105 38.2812 84.5264C38.2812 80.6231 38.5265 76.7569 38.916 73.1276C39.304 69.4962 39.8968 66.0436 40.7744 62.9606C41.6671 59.8298 42.6922 56.889 44.1983 54.3669C46.4456 50.6085 49.4049 47.5243 53.3708 45.5171C54.6682 44.8612 56.0083 44.1736 57.4288 43.6028C60.2758 42.458 63.3939 41.6254 66.77 40.9647C70.125 40.3079 73.699 39.8157 77.5899 39.8157C77.6193 39.8166 77.6472 39.8181 77.6763 39.8166Z" fill="#FF5000"/>
<path d="M49.3972 128.933C47.3648 127.654 44.5718 126.374 41.2031 126.347C41.3064 127.351 41.4249 128.347 41.5356 129.328C41.9456 132.966 42.3966 136.453 43.5651 139.326C44.7273 142.184 46.2853 144.537 49.0602 145.835C50.378 146.452 51.9346 146.961 53.6259 147.239C55.3136 147.518 57.1272 147.674 59.0343 147.836C59.2211 147.851 59.4131 147.864 59.6014 147.879C59.0435 142.587 57.6936 138.59 55.2308 134.93C53.6214 132.537 51.8942 130.501 49.3972 128.933Z" fill="#EFAD1B"/>
<path d="M107.684 146.984C108.483 146.794 109.193 146.497 109.924 146.218C111.397 145.659 112.614 144.958 113.644 143.92C114.64 142.917 115.351 141.674 116.011 140.303C116.666 138.944 117.131 137.437 117.49 135.752C118.113 132.818 118.486 129.638 118.761 126.349C115.4 126.379 112.613 127.657 110.583 128.933C108.086 130.5 106.362 132.537 104.751 134.93C102.286 138.594 100.936 142.593 100.379 147.893C102.019 147.763 103.615 147.603 105.148 147.408C106.058 147.294 106.891 147.174 107.684 146.984Z" fill="#EFAD1B"/>
<path fill-rule="evenodd" clip-rule="evenodd" d="M57.7569 48.6914C56.1663 47.6942 60.2881 45.1123 60.4695 46.9606C60.5651 47.9246 58.6642 48.6227 57.7569 48.6914Z" fill="white"/>
<path fill-rule="evenodd" clip-rule="evenodd" d="M54.4896 48.6129C54.8806 48.5456 55.7181 48.6206 55.7908 49.4203C55.8909 50.465 54.1918 51.6962 53.612 52.3124C52.9052 53.0627 51.9107 54.7953 50.787 54.5162C49.1845 54.1185 51.0702 51.7858 51.7518 51.011C52.1155 50.5995 52.5095 50.231 52.8327 49.8975C53.3888 49.3277 53.7364 48.7426 54.4896 48.6129Z" fill="white"/>
<path fill-rule="evenodd" clip-rule="evenodd" d="M112.763 65.6035C111.903 64.8896 111.289 63.1026 110.791 61.3105C110.576 60.5416 110.253 59.2943 110.913 59.0257C111.706 58.7008 112.297 60.0599 112.507 60.544C113.173 62.0863 113.666 64.0815 113.621 65.2204C113.5 65.4561 113.067 65.6321 112.763 65.6035Z" fill="white"/>
<path fill-rule="evenodd" clip-rule="evenodd" d="M108.805 59.7713C107.298 60.7574 105.74 57.1264 107.166 56.688C107.786 56.4985 109.191 57.9715 109.264 58.9462C109.289 59.2968 109.066 59.5992 108.805 59.7713Z" fill="white"/>
<path fill-rule="evenodd" clip-rule="evenodd" d="M106.75 52.3446C106.254 52.7486 105.439 52.3075 104.843 51.5972C104.363 51.0258 103.703 49.7143 104.496 49.3942C104.846 49.2517 105.545 49.5182 106.056 50.095C106.655 50.7715 107.386 51.8228 106.75 52.3446Z" fill="white"/>
<path d="M123.032 71.8393C122.386 72.2177 121.164 72.9017 120.789 72.5562C120.577 72.359 120.829 71.8639 121.07 71.4527C121.357 70.9644 121.799 70.4713 122.267 69.9496C123.093 69.025 123.95 68.0693 124.17 66.8976C124.282 66.2991 124.084 65.9423 123.901 65.7486C123.331 65.1525 122.195 65.3222 120.99 65.5015C120.294 65.6055 118.995 65.7991 118.805 65.5152C118.784 65.4827 118.6 65.142 119.402 63.7534C119.471 63.6341 119.601 63.4441 119.75 63.2256C120.635 61.9263 121.477 60.5738 121.188 59.5742C121.074 59.1861 120.806 58.8932 120.409 58.7229C119.89 58.5005 119.166 58.6649 118.324 58.8544C117.647 59.0071 116.72 59.2162 116.429 59.0104C116.407 58.9942 116.354 58.9575 116.337 58.8045C116.297 58.4781 116.654 57.8443 116.893 57.4245C116.984 57.2625 117.068 57.1122 117.131 56.9843C117.201 56.8441 117.274 56.7022 117.344 56.5606C117.71 55.8419 118.087 55.0975 118.304 54.2889C118.632 53.0661 118.449 52.2323 117.767 51.8137C116.991 51.3388 115.968 51.7808 115.221 52.1038C115.063 52.172 114.918 52.2353 114.792 52.2801C114.714 52.3088 114.62 52.3471 114.515 52.3895C113.883 52.6474 113.507 52.743 113.393 52.6725C113.305 52.4281 113.687 51.4859 113.813 51.1763C113.88 51.0101 113.938 50.8664 113.975 50.7618C114.021 50.6208 114.094 50.4471 114.173 50.2556C114.472 49.5408 114.842 48.6497 114.659 47.9752C114.546 47.5652 114.313 47.3617 114.136 47.2622C113.654 46.9903 113.065 47.1618 112.594 47.2996L112.43 47.3462C112.201 47.4107 111.942 47.5135 111.668 47.622C111.134 47.8345 110.405 48.1243 110.032 48.0129C109.722 47.9205 109.621 47.4612 109.715 46.5674C109.73 46.418 109.799 46.1219 109.87 45.8081C110.161 44.5524 110.561 42.8327 109.857 41.9978C109.821 41.955 109.773 41.9117 109.724 41.8687C109.722 41.8603 109.724 41.8546 109.724 41.8454C109.709 41.8358 109.694 41.8328 109.678 41.8247C109.616 41.7919 109.555 41.7611 109.498 41.7423C108.466 41.3947 107.028 42.4057 105.976 43.1432C105.715 43.3278 105.467 43.5015 105.333 43.572C104.545 43.9912 104.084 44.0669 103.883 43.8102C103.643 43.5033 103.64 42.7144 103.637 42.1382C103.635 41.8409 103.635 41.5609 103.609 41.3212L103.59 41.1518C103.543 40.6593 103.484 40.0464 103.053 39.6965C102.895 39.5677 102.622 39.4252 102.202 39.4727C101.511 39.5516 100.827 40.2281 100.277 40.7723C100.13 40.9178 99.9968 41.0496 99.8845 41.1464C99.8011 41.2193 99.6901 41.3263 99.5627 41.4506C99.3229 41.6834 98.5949 42.391 98.3375 42.3991C98.2312 42.319 98.1787 41.9308 98.182 41.2447C98.182 41.1312 98.1834 41.0296 98.1805 40.9453C98.176 40.8108 98.179 40.6518 98.1852 40.4788C98.2048 39.6606 98.233 38.5406 97.5081 37.9923C96.8674 37.5085 96.0314 37.6474 95.0247 38.4079C94.3582 38.9109 93.8131 39.5396 93.2847 40.1477C93.1814 40.2681 93.076 40.3874 92.9727 40.5048C92.8786 40.6121 92.7708 40.746 92.6553 40.8924C92.3561 41.2701 91.9054 41.84 91.5895 41.9231C91.4408 41.9637 91.3868 41.9281 91.3648 41.9132C91.0665 41.7175 90.9154 40.7735 90.8046 40.0841C90.6681 39.2273 90.5496 38.488 90.1533 38.0861C89.8487 37.7786 89.4791 37.6373 89.0792 37.6749C88.0505 37.7759 87.1145 39.0627 86.2434 40.3733C86.0971 40.5942 85.9709 40.7848 85.886 40.893C84.9036 42.1591 84.5219 42.1143 84.4821 42.1062C84.1496 42.0333 83.8473 40.749 83.6841 40.0587C83.4023 38.8669 83.1375 37.7416 82.376 37.4302C82.1293 37.3298 81.7262 37.2778 81.2161 37.6047C80.2169 38.2448 79.6537 39.3995 79.1071 40.5168C78.7996 41.1476 78.5081 41.7435 78.1634 42.1932C77.8727 42.5712 77.5106 42.9908 77.2484 42.8644C76.7565 42.6259 76.9993 41.0299 77.1026 40.3479C77.1362 40.1298 77.1641 39.9391 77.1778 39.7936C77.2045 39.5139 77.0008 39.2659 76.7223 39.2384C76.4421 39.21 76.1978 39.4168 76.1725 39.6965C76.1589 39.8271 76.1339 39.9983 76.1034 40.1946C75.9211 41.3974 75.6447 43.2155 76.8093 43.7806C77.838 44.2796 78.6541 43.2155 78.9623 42.8145C79.3684 42.2837 79.6964 41.6135 80.0138 40.9656C80.4974 39.9744 80.9985 38.9488 81.7576 38.4626C81.8996 38.3724 81.9764 38.3643 81.996 38.3724C82.2739 38.4865 82.5411 39.6176 82.7005 40.2935C83.0155 41.6287 83.3139 42.8898 84.2659 43.0995C84.9689 43.2546 85.7129 42.7672 86.6816 41.5199C86.7879 41.3819 86.9185 41.1864 87.0833 40.9384C87.5176 40.2831 88.5365 38.7498 89.1757 38.687C89.2463 38.6802 89.3238 38.69 89.436 38.8036C89.6046 38.9733 89.7207 39.7084 89.808 40.2457C89.9698 41.2671 90.139 42.3232 90.8132 42.7652C91.0181 42.8996 91.3642 43.0338 91.8449 42.9074C92.484 42.7395 93.0178 42.0668 93.4459 41.5265C93.5492 41.3962 93.6418 41.2767 93.7276 41.1814C93.8324 41.0609 93.9402 40.9396 94.045 40.8171C94.5393 40.2487 95.0487 39.66 95.6309 39.2214C96.2345 38.765 96.662 38.6249 96.9009 38.8057C97.21 39.0391 97.1886 39.8904 97.1735 40.4537C97.169 40.6486 97.1643 40.829 97.169 40.9803C97.172 41.0538 97.172 41.1419 97.1705 41.2402C97.1675 41.9517 97.1613 43.2759 98.2158 43.4082C98.8666 43.4886 99.5253 42.9008 100.263 42.1824C100.374 42.0752 100.47 41.9813 100.542 41.9195C100.668 41.8098 100.819 41.6619 100.985 41.4981C101.353 41.1336 101.971 40.5233 102.315 40.4836C102.386 40.4755 102.414 40.4854 102.417 40.4878C102.519 40.5703 102.564 41.0311 102.585 41.2525L102.604 41.4339C102.624 41.6191 102.626 41.8732 102.626 42.1424C102.628 42.9471 102.631 43.8592 103.089 44.4419C103.905 45.4803 105.334 44.7222 105.805 44.4727C105.993 44.3729 106.241 44.1986 106.554 43.9781C107.067 43.6177 108.45 42.4054 109.139 42.7284C109.614 43.4438 109.028 44.9651 108.886 45.5783C108.799 45.9531 108.732 46.2501 108.709 46.462C108.653 46.9936 108.484 48.6117 109.743 48.9888C110.452 49.2004 111.294 48.8651 112.039 48.569C112.287 48.4704 112.521 48.3768 112.701 48.3272L112.875 48.277C113.087 48.2149 113.527 48.0855 113.641 48.1503C113.644 48.1524 113.665 48.176 113.683 48.2442C113.774 48.5812 113.44 49.3845 113.242 49.8644C113.151 50.0799 113.071 50.2759 113.017 50.434C112.986 50.5254 112.935 50.6491 112.878 50.7923C112.489 51.7491 112.191 52.5832 112.506 53.1614C113.02 54.0979 114.239 53.601 114.895 53.3329C114.985 53.2962 115.066 53.2627 115.135 53.2379C115.275 53.1871 115.442 53.116 115.619 53.0389C116.133 52.8168 116.909 52.481 117.24 52.6836C117.497 52.8398 117.525 53.2911 117.329 54.0247C117.138 54.7308 116.787 55.4262 116.445 56.0986C116.371 56.2435 116.299 56.3869 116.227 56.5304C116.17 56.6451 116.095 56.7775 116.013 56.9224C115.674 57.5231 115.25 58.2705 115.332 58.9324C115.395 59.4281 115.647 59.7012 115.848 59.8429C116.504 60.3079 117.542 60.0745 118.546 59.8483C119.072 59.729 119.794 59.5662 120.013 59.6597C120.16 59.7219 120.196 59.7915 120.216 59.859C120.396 60.4803 119.358 62.0013 118.917 62.6513C118.749 62.8969 118.618 63.0906 118.529 63.2421C117.738 64.6104 117.564 65.4866 117.968 66.0863C118.516 66.8991 119.788 66.7091 121.138 66.5085C121.821 66.4069 122.962 66.2357 123.172 66.4542C123.187 66.47 123.208 66.5447 123.176 66.7097C123.009 67.6008 122.25 68.4494 121.515 69.2682C121.035 69.8055 120.538 70.3595 120.199 70.9372C119.943 71.3735 119.265 72.5299 120.106 73.3069C120.841 73.984 121.947 73.5836 122.892 73.0831C122.85 72.6638 122.895 72.2335 123.032 71.8393Z" fill="white"/>
<path fill-rule="evenodd" clip-rule="evenodd" d="M122.918 71.5871C123.737 71.4914 124.36 71.8187 124.456 73.2982C124.508 74.1226 124.093 74.7182 124.12 75.1392C124.168 75.8821 124.678 76.6659 124.82 77.3843C124.939 77.9859 124.93 78.802 124.516 79.1352C123.905 79.6282 122.913 79.431 122.619 78.906C122.225 78.1992 122.342 77.3601 122.408 76.738C122.442 76.417 122.658 75.5979 122.308 74.9148C122.108 74.5272 121.837 74.1606 121.713 73.3328C121.508 71.9875 122.285 71.6603 122.918 71.5871Z" fill="#EFAD1B"/>
<path fill-rule="evenodd" clip-rule="evenodd" d="M76.6533 81.1137C81.506 80.8806 86.3382 81.0778 90.7278 81.5813C92.8816 81.8291 95.0073 82.127 96.9417 82.6458C98.9147 83.1714 100.718 83.6949 102.31 84.5164C104.793 85.7981 106.69 87.3944 108.1 89.6646C109.509 91.9342 110.308 94.563 110.678 98.0034C110.916 100.212 110.913 102.575 111.016 104.938C111.447 114.779 111.088 124.224 106.24 129.104C103.893 131.467 100.16 132.762 96.3067 133.699C93.2928 134.434 90.2104 134.817 86.7553 135.061C83.3573 135.301 79.7039 135.189 76.1889 135.189C73.8659 135.189 71.5889 134.936 69.4246 134.678C65.044 134.154 61.1555 133.197 57.8857 131.7C56.1428 130.901 54.694 130 53.5332 128.763C52.3998 127.557 51.5115 125.975 50.8281 124.212C49.4898 120.753 49.1237 116.384 49.0097 111.448C48.956 109.099 49.0516 106.898 49.1374 104.597C49.2262 102.215 49.2003 99.8828 49.4743 97.62C49.7439 95.4099 50.2768 93.4729 50.954 91.7914C52.3214 88.3976 54.8214 85.9508 58.0965 84.3873C61.3398 82.8421 65.4272 82.0388 69.7631 81.5386C71.9341 81.287 74.1806 81.2314 76.6533 81.1137Z" fill="#4D3D87"/>
<path opacity="0.21" fill-rule="evenodd" clip-rule="evenodd" d="M80.0357 95.2389C82.3124 95.1289 85.0143 95.2374 87.3899 95.2389C91.0681 95.2389 94.5505 95.3229 98.3368 95.3229C101.09 95.3229 102.893 95.4308 105.523 95.4932C106.315 95.5129 106.696 95.5359 107.214 95.6217C107.756 95.712 108.338 95.8808 108.398 96.2597C108.561 97.2951 106.724 97.6224 105.691 97.7057C104.31 97.8187 102.843 97.7912 101.634 97.7912C98.8142 97.7912 96.0613 97.7491 93.5183 97.7491C90.7449 97.7491 88.0771 97.6466 85.5709 97.8758C83.0641 98.1059 80.6588 98.4695 78.5558 99.1099C76.5711 99.7144 74.5577 100.673 72.2575 101.109C67.2908 102.053 62.1671 101.115 57.5913 100.215C56.5445 100.01 55.2962 99.8489 54.1247 99.5357C53.2486 99.3003 51.5253 98.8526 51.5042 98.0455C51.4701 96.7402 54.3845 96.5714 55.7733 96.43C58.7622 96.1237 61.7883 95.9349 64.8615 95.7484C68.4676 95.5282 72.3223 95.3229 76.1463 95.3229C77.408 95.3229 78.7306 95.3008 80.0357 95.2389Z" fill="black"/>
<path fill-rule="evenodd" clip-rule="evenodd" d="M107.736 95.5963C108.557 95.6621 109.105 96.1053 108.914 97.5755C108.807 98.3955 108.284 98.899 108.23 99.3171C108.133 100.055 108.481 100.924 108.483 101.658C108.485 102.27 108.318 103.071 107.85 103.317C107.153 103.681 106.217 103.294 106.032 102.721C105.781 101.952 106.058 101.15 106.243 100.551C106.338 100.244 106.709 99.4814 106.496 98.7424C106.375 98.3229 106.18 97.9102 106.215 97.0735C106.274 95.715 107.101 95.5443 107.736 95.5963Z" fill="white"/>
<path d="M90.287 84.3735C89.6972 83.7444 88.7831 83.4857 88.4838 82.677C88.181 81.8663 88.3336 80.4113 88.3746 79.2312C88.4253 77.8214 88.3882 76.4847 88.7252 75.3743C89.2079 73.7848 90.7582 73.1405 91.5357 71.9324C94.1604 67.8474 92.0929 62.2593 88.0881 61.6557C84.7013 61.1453 81.9517 64.3158 81.7388 68.2266C81.6023 70.7777 82.8441 72.524 84.213 73.8314C84.8272 74.4183 85.5278 74.7452 85.8535 75.674C86.2187 76.7154 86.1124 78.1056 86.1032 79.4368C86.091 80.8001 85.7677 82.2581 85.8951 83.6115C85.9818 84.5522 86.5654 85.1193 86.6663 85.9949C86.7946 87.1349 86.62 88.4091 86.403 89.7279C87.2117 88.1513 88.0679 86.5848 88.985 85.5033C89.3077 85.1256 89.8572 84.77 90.287 84.3735ZM86.7863 72.4039C84.6149 72.1762 83.8437 69.915 84.0441 67.8306C84.2673 65.512 86.0135 63.16 88.3698 64.0532C91.9199 65.4015 90.627 72.8067 86.7863 72.4039Z" fill="#8F7ECE"/>
<path d="M90.8337 87.9973C89.9591 89.3698 89.1756 91.3896 88.5872 92.587C87.8804 94.0253 86.9695 95.8768 85.9961 97.844C86.86 97.7777 87.7423 97.7448 88.6413 97.7325C88.9738 96.2142 89.3063 94.7117 89.6432 93.2552C90.022 91.6203 90.5977 89.7012 90.8337 87.9973Z" fill="#8F7ECE"/>
<path d="M103.008 67.892C102.621 66.8452 101.587 65.5869 100.153 65.1583C97.5234 64.3718 95.5008 66.279 94.3614 67.8069C92.0428 70.9135 90.5359 76.3925 90.7235 80.8997C90.7606 81.7878 91.0741 82.8612 90.8625 83.5683C90.7758 83.8623 90.5543 84.1262 90.2862 84.3736C89.8563 84.7701 89.3068 85.1257 88.985 85.5038C88.068 86.5849 87.2115 88.1517 86.4031 89.7283C86.2725 89.982 86.1433 90.2366 86.016 90.4888C85.1253 92.2525 84.2683 94.0996 83.3604 95.9191C82.9792 96.6862 82.5868 97.4811 82.1973 98.2933C83.1719 98.1367 84.1804 98.0115 85.2073 97.912C85.3287 97.8998 85.4486 97.8875 85.5695 97.8762C85.7105 97.8639 85.8533 97.8546 85.9952 97.8442C86.9686 95.8773 87.8795 94.0255 88.5863 92.5872C89.1747 91.3898 89.9582 89.37 90.8328 87.9975C91.173 87.4641 91.526 87.0269 91.8873 86.7765C92.3231 86.4753 93.1454 86.4938 93.4664 86.0635C93.9583 84.7429 92.7337 82.8056 93.9422 82.0293C94.2718 81.8183 94.6277 82.0308 95.0143 82.0141C97.3913 81.9133 98.925 80.135 100.492 77.7477C102.301 74.9925 104.193 71.0943 103.008 67.892ZM89.6331 88.7768C89.5473 89.2974 89.0577 89.6488 88.5415 89.5625C88.0246 89.4755 87.6737 88.9824 87.761 88.4604C87.8459 87.9401 88.3372 87.5893 88.8526 87.6748C89.3713 87.7644 89.7213 88.2572 89.6331 88.7768ZM101.412 71.0491C101.128 73.244 99.9243 75.5447 98.5984 77.4294C97.3527 79.2018 95.2423 81.2526 93.328 79.8712C91.2039 78.3343 94.2537 70.3541 96.5547 68.0776C97.185 67.4545 98.2196 66.7577 99.0957 66.8398C101.078 67.0305 101.675 69.0096 101.412 71.0491Z" fill="#8F7ECE"/>
<path opacity="0.62" d="M103.008 67.892C102.621 66.8452 101.587 65.5869 100.153 65.1583C97.5234 64.3718 95.5008 66.279 94.3614 67.8069C92.0428 70.9135 90.5359 76.3925 90.7235 80.8997C90.7606 81.7878 91.0741 82.8612 90.8625 83.5683C90.7758 83.8623 90.5543 84.1262 90.2862 84.3736C89.8563 84.7701 89.3068 85.1257 88.985 85.5038C88.068 86.5849 87.2115 88.1517 86.4031 89.7283C86.2725 89.982 86.1433 90.2366 86.016 90.4888C85.1253 92.2525 84.2683 94.0996 83.3604 95.9191C82.9792 96.6862 82.5868 97.4811 82.1973 98.2933C83.1719 98.1367 84.1804 98.0115 85.2073 97.912C85.3287 97.8998 85.4486 97.8875 85.5695 97.8762C85.7105 97.8639 85.8533 97.8546 85.9952 97.8442C86.9686 95.8773 87.8795 94.0255 88.5863 92.5872C89.1747 91.3898 89.9582 89.37 90.8328 87.9975C91.173 87.4641 91.526 87.0269 91.8873 86.7765C92.3231 86.4753 93.1454 86.4938 93.4664 86.0635C93.9583 84.7429 92.7337 82.8056 93.9422 82.0293C94.2718 81.8183 94.6277 82.0308 95.0143 82.0141C97.3913 81.9133 98.925 80.135 100.492 77.7477C102.301 74.9925 104.193 71.0943 103.008 67.892ZM89.6331 88.7768C89.5473 89.2974 89.0577 89.6488 88.5415 89.5625C88.0246 89.4755 87.6737 88.9824 87.761 88.4604C87.8459 87.9401 88.3372 87.5893 88.8526 87.6748C89.3713 87.7644 89.7213 88.2572 89.6331 88.7768ZM101.412 71.0491C101.128 73.244 99.9243 75.5447 98.5984 77.4294C97.3527 79.2018 95.2423 81.2526 93.328 79.8712C91.2039 78.3343 94.2537 70.3541 96.5547 68.0776C97.185 67.4545 98.2196 66.7577 99.0957 66.8398C101.078 67.0305 101.675 69.0096 101.412 71.0491Z" fill="white"/>
<path d="M88.5418 89.5624C89.0581 89.6488 89.548 89.2973 89.6335 88.7768C89.7216 88.2571 89.3716 87.7643 88.853 87.6747C88.3376 87.5892 87.8463 87.9398 87.7614 88.4603C87.6741 88.9824 88.025 89.4754 88.5418 89.5624Z" fill="#4D3D87"/>
<path d="M98.7419 97.7789L99.9504 93.1235L97.7441 92.6367L96.4141 97.7628C97.1779 97.7667 97.954 97.773 98.7419 97.7789Z" fill="#B1BC00"/>
<path d="M96.9485 92.4615L95.7624 92.2009C95.253 94.045 94.7756 95.8971 94.3125 97.7505C94.7314 97.7519 95.1467 97.7534 95.5751 97.7564L96.9485 92.4615Z" fill="#B1BC00"/>
<path d="M102.026 93.6058C102.027 93.5974 102.023 93.5897 102.026 93.5807L100.744 93.2971L99.5781 97.7837C100.035 97.7867 100.5 97.7882 100.963 97.7882C101.225 96.7797 101.476 95.7786 101.693 94.8095C101.786 94.3881 102.005 93.9602 102.026 93.6058Z" fill="#B1BC00"/>
<path d="M101.96 93.0907C101.949 92.9126 101.955 92.7375 101.958 92.572C102 90.8157 101.993 89.2675 101.8 87.5062L99.163 86.6662C99.2631 86.5431 99.3649 86.4149 99.4741 86.2849C98.3733 87.5926 97.7113 88.637 96.9887 89.8177C96.6123 90.4207 96.1542 91.0052 95.8977 91.5906C95.825 91.7565 95.825 91.9719 95.7665 92.1892C95.7635 92.1922 95.7635 92.1966 95.7635 92.2014L96.9495 92.462L95.5762 97.7569C95.8517 97.7584 96.1349 97.7599 96.4151 97.7632L97.7451 92.6371L99.9515 93.1239L98.7429 97.7794C99.0232 97.7808 99.2987 97.7823 99.5795 97.7838L100.746 93.2972L102.027 93.5808C102.027 93.4302 101.968 93.2536 101.96 93.0907Z" fill="#EFAD1B"/>
<path d="M101.8 87.5058C101.793 87.4514 101.789 87.4003 101.784 87.3444C101.721 86.7928 101.617 85.5578 101.062 85.2775C100.652 85.0728 100.019 85.6381 99.4732 86.2845C99.364 86.4145 99.2622 86.5427 99.1621 86.6658L101.8 87.5058Z" fill="white"/>
<path d="M74.8971 67.6029C74.9107 66.8543 74.3155 66.2318 73.5671 66.2205C72.8199 66.2055 72.2044 66.8032 72.1908 67.5554L72.1641 69.0062L74.8683 69.045L74.8971 67.6029Z" fill="#EFAD1B"/>
<path d="M70.2471 86.0149L69.9375 101.416C70.7132 101.352 71.4878 101.256 72.2576 101.109C73.4228 100.887 74.5147 100.533 75.5662 100.158L75.851 86.098L70.2471 86.0149Z" fill="#B1BC00"/>
<path d="M70.2461 86.0135L75.8511 86.0968L75.8701 84.456L70.2719 84.375L70.2461 86.0135Z" fill="white"/>
<path d="M74.8539 69.8683L72.1473 69.8279L70.4815 69.8034L70.4937 68.9858H70.4922L70.2734 84.3743L75.8704 84.4568L76.083 69.8859L74.8539 69.8683ZM74.1091 78.32C73.2208 78.2788 73.1341 76.3355 73.838 75.994C74.8554 75.4925 75.2791 78.3714 74.1091 78.32ZM74.4986 74.6436C73.2915 74.8246 73.5343 72.5649 73.952 71.9191C73.9793 71.8788 74.0164 71.8633 74.0568 71.8352C75.2176 71.0513 75.5287 74.49 74.4986 74.6436Z" fill="#B1BC00"/>
<path d="M74.8691 69.0452V69.0476L72.1648 69.0085L70.4943 68.9849L70.4824 69.8025L72.1479 69.827L74.8545 69.8676L76.0836 69.8852L76.8534 69.8972L76.6349 85.3218L77.7995 85.3409L78.0213 69.9142L78.0311 69.0927L74.8691 69.0452Z" fill="white"/>
<path d="M74.0557 71.8345C74.0156 71.8626 73.9782 71.8782 73.9509 71.9185C73.5332 72.5643 73.2903 74.824 74.4974 74.6429C75.5276 74.4893 75.2164 71.0507 74.0557 71.8345Z" fill="white"/>
<path d="M73.8382 75.9932C73.1343 76.3348 73.221 78.2781 74.1093 78.3193C75.2792 78.3707 74.8556 75.4918 73.8382 75.9932Z" fill="white"/>
<path d="M70.1553 99.1451L68.0151 99.5205C67.861 99.5474 67.7182 99.4464 67.6918 99.2943C67.6645 99.1422 67.7678 98.9954 67.916 98.9673L70.0585 98.5935C70.1725 98.572 70.2818 98.6249 70.3402 98.7133L69.8605 95.9294C69.8459 96.0463 69.7601 96.1479 69.6363 96.1685L67.4938 96.5483C67.3442 96.5743 67.2008 96.4718 67.172 96.3197C67.1462 96.167 67.2471 96.0209 67.4012 95.9934L69.5399 95.6151C69.6643 95.596 69.7797 95.6602 69.8338 95.7687L69.3457 92.9259C69.3413 93.055 69.2522 93.1713 69.118 93.1958L66.9793 93.5726C66.8276 93.6016 66.6824 93.4985 66.656 93.3464C66.6302 93.1928 66.7305 93.0475 66.8813 93.021L69.023 92.6426C69.1566 92.6196 69.2798 92.7 69.3261 92.8222L68.8274 89.9215C68.8395 90.0629 68.7469 90.1958 68.6026 90.2179L66.461 90.5984C66.3084 90.625 66.1656 90.5242 66.1392 90.3706C66.1133 90.2179 66.2128 90.0748 66.3654 90.0467L68.5041 89.6678C68.6492 89.6424 68.7825 89.7359 68.8199 89.8764L68.3144 86.9243C68.3363 87.0749 68.2378 87.2192 68.0881 87.2467L65.9456 87.625C65.7945 87.6525 65.6511 87.5479 65.6223 87.3928C65.5956 87.2437 65.6989 87.0979 65.847 87.0704L67.9902 86.6951C68.1413 86.6661 68.2841 86.7677 68.3129 86.9198L63.6166 59.6111L52.498 61.5472L59.2003 100.526C62.8899 101.221 66.8668 101.795 70.7888 101.329L70.3773 98.9321C70.3512 99.0382 70.2678 99.1224 70.1553 99.1451ZM54.9903 62.5262C55.4784 62.5306 55.4876 63.1008 55.6227 63.7029C55.7631 64.3362 55.9201 64.6816 55.5104 64.952C54.3437 65.7185 53.5214 62.5058 54.9903 62.5262ZM56.972 70.2772C56.1977 70.735 55.802 69.9278 55.5654 68.8948C55.365 68.0237 55.112 65.8617 56.2396 66.266C56.4809 66.3547 56.9197 67.3415 57.1127 67.8716C57.4888 68.907 57.5351 69.9464 56.972 70.2772ZM58.7583 65.3767C58.7211 65.6101 58.5926 65.7619 58.416 65.8703C57.3045 66.529 57.0533 64.0227 57.8988 63.8267C58.3975 63.7098 58.844 64.8134 58.7583 65.3767ZM61.48 63.61C61.4518 63.4594 61.5536 63.3133 61.7047 63.2867L63.8434 62.9081C63.9984 62.8806 64.1418 62.9846 64.1685 63.1367C64.1928 63.2891 64.0925 63.4346 63.9423 63.4594L61.7997 63.8377C61.6522 63.8634 61.5058 63.7627 61.48 63.61ZM61.9969 66.5833C61.9725 66.4312 62.0699 66.2881 62.2246 66.2594L64.3632 65.8817C64.5158 65.8539 64.6616 65.9588 64.6883 66.1103C64.7127 66.2627 64.6117 66.4079 64.4606 66.4324L62.3205 66.8113C62.1664 66.8373 62.0245 66.7378 61.9969 66.5833ZM62.5149 69.5582C62.4882 69.4061 62.59 69.2608 62.7396 69.2342L64.8822 68.8544C65.0333 68.8299 65.1767 68.933 65.204 69.0845C65.2289 69.2357 65.1319 69.381 64.9778 69.4076L62.8391 69.7844C62.6862 69.8143 62.5404 69.7109 62.5149 69.5582ZM63.0318 72.5315C63.0068 72.3788 63.1054 72.2312 63.261 72.2052L65.3982 71.8269C65.5516 71.8018 65.6965 71.901 65.7215 72.0579C65.7503 72.2085 65.6487 72.3537 65.4952 72.3812L63.3536 72.7601C63.204 72.7855 63.06 72.6821 63.0318 72.5315ZM63.5504 75.5037C63.5246 75.3516 63.6279 75.2057 63.7766 75.1764L65.9183 74.8035C66.0679 74.776 66.2122 74.8767 66.2401 75.0258C66.268 75.1809 66.165 75.3262 66.0139 75.3545L63.8737 75.7296C63.722 75.7574 63.5768 75.6564 63.5504 75.5037ZM64.0682 78.4749C64.0429 78.3243 64.1433 78.1761 64.2973 78.151L66.4351 77.775C66.5848 77.7491 66.7326 77.8486 66.7602 78.0028C66.7822 78.1572 66.6851 78.3001 66.534 78.3246L64.3885 78.7044C64.2389 78.7307 64.0955 78.6267 64.0682 78.4749ZM64.5898 81.4467C64.5601 81.2961 64.6634 81.1533 64.813 81.1228L66.9547 80.7475C67.1058 80.72 67.2486 80.8216 67.2765 80.9737C67.3023 81.1243 67.202 81.271 67.0517 81.2991L64.9086 81.676C64.756 81.7034 64.6117 81.5995 64.5898 81.4467ZM65.1051 84.4216C65.0793 84.271 65.1797 84.1257 65.3328 84.0976L67.4715 83.7202C67.6226 83.6933 67.7675 83.7973 67.7948 83.9464C67.8183 84.1024 67.7212 84.2453 67.5701 84.2728L65.427 84.6526C65.2753 84.6777 65.1316 84.5737 65.1051 84.4216Z" fill="#EFAD1B"/>
<path d="M64.1678 63.1368C64.1411 62.9847 63.9977 62.8807 63.8427 62.9082L61.704 63.2868C61.5529 63.3131 61.4511 63.4596 61.4793 63.6102C61.5051 63.7626 61.6515 63.8636 61.799 63.8379L63.9416 63.4596C64.0921 63.4348 64.1921 63.2892 64.1678 63.1368Z" fill="white"/>
<path d="M64.6874 66.11C64.6607 65.9588 64.5149 65.8536 64.3623 65.8814L62.2236 66.2591C62.0686 66.2878 61.9716 66.431 61.9959 66.5831C62.0232 66.7379 62.1651 66.8371 62.3192 66.8108L64.4594 66.4319C64.6108 66.4076 64.7117 66.2624 64.6874 66.11Z" fill="white"/>
<path d="M65.2031 69.0848C65.1758 68.9333 65.0324 68.8302 64.8813 68.8547L62.7388 69.2345C62.5891 69.2611 62.4873 69.4063 62.514 69.5584C62.5399 69.7111 62.6856 69.8145 62.8382 69.7846L64.9769 69.4078C65.131 69.3812 65.2284 69.236 65.2031 69.0848Z" fill="white"/>
<path d="M65.721 72.0581C65.696 71.9015 65.5508 71.802 65.3977 71.8271L63.2605 72.2054C63.1049 72.2314 63.006 72.379 63.0313 72.5317C63.0595 72.6824 63.2035 72.7855 63.3531 72.7603L65.4947 72.3814C65.6482 72.3539 65.75 72.2087 65.721 72.0581Z" fill="white"/>
<path d="M66.2405 75.0259C66.2126 74.8768 66.068 74.7761 65.9187 74.8036L63.7771 75.1765C63.6283 75.2055 63.525 75.3516 63.5508 75.5037C63.5776 75.6564 63.7224 75.7574 63.8744 75.73L66.0146 75.3549C66.1654 75.3262 66.2687 75.1813 66.2405 75.0259Z" fill="white"/>
<path d="M66.7604 78.0026C66.7331 77.8484 66.5849 77.7489 66.4353 77.7749L64.2975 78.1508C64.1434 78.1759 64.0431 78.3244 64.0683 78.4747C64.0956 78.6268 64.239 78.7305 64.3887 78.7039L66.5342 78.3241C66.6853 78.2999 66.7824 78.1571 66.7604 78.0026Z" fill="white"/>
<path d="M67.2758 80.9739C67.2476 80.8218 67.1051 80.7202 66.954 80.7477L64.8123 81.123C64.6627 81.1535 64.5594 81.2963 64.5891 81.4469C64.6111 81.5996 64.7553 81.7036 64.9079 81.6761L67.0511 81.2993C67.2013 81.2712 67.3016 81.1245 67.2758 80.9739Z" fill="white"/>
<path d="M67.7933 83.9462C67.766 83.7971 67.6209 83.6934 67.47 83.72L65.3314 84.0974C65.1782 84.1255 65.0778 84.271 65.1037 84.4213C65.1304 84.5734 65.2738 84.6771 65.4255 84.652L67.5686 84.2722C67.7197 84.2453 67.8171 84.1022 67.7933 83.9462Z" fill="white"/>
<path d="M67.9893 86.6951L65.8461 87.0705C65.698 87.098 65.5947 87.2441 65.6214 87.3929C65.6502 87.548 65.7939 87.6529 65.9447 87.6251L68.0872 87.2468C68.2369 87.2193 68.3354 87.0749 68.3135 86.9243L68.312 86.9198C68.2832 86.7677 68.1404 86.6661 67.9893 86.6951Z" fill="white"/>
<path d="M68.5018 89.668L66.3631 90.0469C66.2105 90.0753 66.1111 90.2181 66.1369 90.3708C66.1633 90.5244 66.3061 90.6254 66.4587 90.5985L68.6004 90.2181C68.7446 90.196 68.8373 90.063 68.8251 89.9217L68.8174 89.8766C68.7806 89.7361 68.647 89.6426 68.5018 89.668Z" fill="white"/>
<path d="M69.0234 92.6428L66.8817 93.0211C66.7306 93.048 66.6306 93.1932 66.6564 93.3465C66.6828 93.4986 66.828 93.6017 66.9797 93.5727L69.1184 93.1959C69.2526 93.1714 69.3416 93.0554 69.3461 92.9261L69.3265 92.8221C69.2799 92.7001 69.157 92.6201 69.0234 92.6428Z" fill="white"/>
<path d="M69.5399 95.6157L67.4012 95.994C67.2471 96.0215 67.1462 96.1673 67.172 96.3203C67.2008 96.4724 67.3442 96.5749 67.4938 96.5489L69.6364 96.1691C69.7602 96.1485 69.846 96.0469 69.8605 95.93L69.8338 95.7696C69.7798 95.6608 69.6646 95.5965 69.5399 95.6157Z" fill="white"/>
<path d="M70.0586 98.5936L67.916 98.9674C67.7679 98.9958 67.6646 99.1425 67.6919 99.2943C67.7186 99.4464 67.8611 99.5474 68.0152 99.5205L70.1554 99.1452C70.2679 99.1222 70.3513 99.0382 70.3771 98.9318L70.34 98.7134C70.2818 98.6249 70.1723 98.5723 70.0586 98.5936Z" fill="white"/>
<path d="M56.2391 66.2662C55.1115 65.8618 55.3645 68.0239 55.5648 68.895C55.8018 69.928 56.1972 70.7351 56.9714 70.2773C57.5349 69.9465 57.4886 68.9072 57.1119 67.8718C56.9192 67.3419 56.4804 66.3549 56.2391 66.2662Z" fill="white"/>
<path d="M57.898 63.8264C57.0522 64.0225 57.3037 66.529 58.4152 65.8701C58.5921 65.7616 58.7204 65.6098 58.7575 65.3764C58.8433 64.8135 58.3968 63.7099 57.898 63.8264Z" fill="white"/>
<path d="M55.6225 63.703C55.4874 63.1009 55.4782 62.5307 54.9901 62.5262C53.5212 62.5059 54.3432 65.7186 55.5102 64.9521C55.9199 64.6817 55.7626 64.3362 55.6225 63.703Z" fill="white"/>
<path d="M73.6992 153.845L80.3376 155.86L84.6379 156.904L80.4828 155.378L73.8444 153.361L73.6992 153.845Z" fill="#8F7ECE"/>
<path d="M76.4645 152.706L70.6778 150.95L69.7441 154.067L75.5071 155.817C75.6899 156.627 76.1569 157.41 76.8418 158.062L78.8036 151.61C77.8812 151.764 77.0651 152.144 76.4645 152.706Z" fill="#FF5000"/>
<path d="M70.7026 149.515C70.9606 149.593 71.1058 149.866 71.0277 150.124L69.5911 154.915C69.5151 155.173 69.242 155.319 68.9861 155.241C68.7302 155.163 68.5844 154.89 68.661 154.632L70.0973 149.842C70.176 149.583 70.4467 149.436 70.7026 149.515Z" fill="#FF5000"/>
<path fill-rule="evenodd" clip-rule="evenodd" d="M17.3417 148.716C17.2651 148.675 17.293 148.627 17.3295 148.575C18.6922 148.09 20.0385 147.436 21.4017 146.957C22.1822 148.09 23.4546 148.045 24.2883 147.064C25.2463 147.323 29.0181 148.273 29.9823 148.603C29.1858 149.855 27.7557 150.4 26.7102 151.425C24.5228 150.727 19.5388 149.543 17.3417 148.716Z" fill="#8F7ECE"/>
<path opacity="0.62" fill-rule="evenodd" clip-rule="evenodd" d="M17.3417 148.716C17.2651 148.675 17.293 148.627 17.3295 148.575C18.6922 148.09 20.0385 147.436 21.4017 146.957C22.1822 148.09 23.4546 148.045 24.2883 147.064C25.2463 147.323 29.0181 148.273 29.9823 148.603C29.1858 149.855 27.7557 150.4 26.7102 151.425C24.5228 150.727 19.5388 149.543 17.3417 148.716Z" fill="white"/>
<path fill-rule="evenodd" clip-rule="evenodd" d="M23.4824 149.319C24.3047 147.575 26.7878 146.373 28.1947 146.296C29.8192 146.207 31.8685 147.097 33.7587 147.727C35.7493 148.392 37.5569 148.912 39.2856 149.458C42.9669 150.617 46.3296 151.605 50.3419 152.917C54.2844 154.21 58.0826 155.567 61.4177 156.616C63.16 157.165 64.9873 157.868 66.9671 158.583C68.6771 159.2 70.4608 159.797 71.9609 160.882C72.1752 161.037 72.2224 161.927 72.4243 162.104C74.9647 164.326 75.768 166.904 76.0248 169.613C76.1145 170.546 76.1367 171.465 75.6166 172.079C74.8976 172.924 73.9298 172.331 72.8699 172.079C71.713 171.803 70.5507 172.125 69.501 171.758C68.2594 171.324 67.039 170.844 65.712 170.359C64.1626 169.792 62.748 169.465 61.4453 168.164C60.5873 167.306 60.3474 166.24 59.4348 165.36C58.1722 164.135 56.442 163.664 54.9235 163.064C53.3566 162.447 51.9658 161.983 50.4725 161.481C44.3298 159.41 38.8561 157.712 32.7612 155.551C31.3727 155.06 30.019 154.646 28.3093 153.966C27.1007 153.484 24.7774 152.741 23.8612 151.727C23.396 151.211 23.1036 150.118 23.4824 149.319Z" fill="#FF5000"/>
<path d="M76.1813 172.443C76.7014 171.83 76.6815 170.542 76.5919 169.609C76.3354 166.901 75.1268 163.601 72.5864 161.379C72.4246 161.237 72.2554 161.107 72.0847 160.979C70.9361 161.784 70.9839 163.213 70.7007 164.278C70.0357 166.779 69.3552 169.54 69.5028 171.756C70.5528 172.123 71.6162 172.458 72.7735 172.734C73.833 172.986 75.4623 173.288 76.1813 172.443Z" fill="#EFAD1B"/>
<path fill-rule="evenodd" clip-rule="evenodd" d="M25.324 150.114C25.2338 149.482 26.8143 148.524 27.5432 148.377C28.7238 148.137 31.1395 149.069 32.6049 149.492C37.6595 150.949 42.8661 152.592 47.9034 154.139C53.3538 155.812 57.7713 157.113 63.2299 159.141C64.8562 159.744 67.2656 160.594 68.3234 162.039C68.9543 162.903 69.3224 165.346 68.3941 166.379C67.2582 167.641 64.5433 166.733 63.1996 165.811C62.4586 165.301 61.8649 164.551 61.1506 163.962C59.7057 162.77 58.1299 162.167 56.5763 161.614C52.2702 160.079 47.4267 158.51 43.1143 156.988C40.0766 155.918 37.0636 154.839 34.086 153.712C32.6176 153.156 31.0947 152.665 29.5794 152.193C28.1233 151.737 26.3696 151.443 25.324 150.114Z" fill="#8F7ECE"/>
<path opacity="0.62" fill-rule="evenodd" clip-rule="evenodd" d="M25.324 150.114C25.2338 149.482 26.8143 148.524 27.5432 148.377C28.7238 148.137 31.1395 149.069 32.6049 149.492C37.6595 150.949 42.8661 152.592 47.9034 154.139C53.3538 155.812 57.7713 157.113 63.2299 159.141C64.8562 159.744 67.2656 160.594 68.3234 162.039C68.9543 162.903 69.3224 165.346 68.3941 166.379C67.2582 167.641 64.5433 166.733 63.1996 165.811C62.4586 165.301 61.8649 164.551 61.1506 163.962C59.7057 162.77 58.1299 162.167 56.5763 161.614C52.2702 160.079 47.4267 158.51 43.1143 156.988C40.0766 155.918 37.0636 154.839 34.086 153.712C32.6176 153.156 31.0947 152.665 29.5794 152.193C28.1233 151.737 26.3696 151.443 25.324 150.114Z" fill="white"/>
<path d="M31.2296 149.064C31.0527 149.008 30.8743 148.953 30.6938 148.897C29.5579 149.695 28.4298 150.596 27.3008 151.482C27.4851 151.555 27.6704 151.62 27.8595 151.681C28.4417 151.254 29.0232 150.796 29.601 150.344C30.1445 149.919 30.6988 149.5 31.2296 149.064Z" fill="#8F7ECE"/>
<path d="M35.7836 150.426C35.6004 150.568 35.4335 150.751 35.2664 150.873C34.344 151.547 33.294 152.327 32.3867 153.105C32.5933 153.174 32.7997 153.243 33.0054 153.317C34.0546 152.5 35.0826 151.449 36.1235 150.526C36.0098 150.492 35.8973 150.459 35.7836 150.426Z" fill="#8F7ECE"/>
<path d="M41.8214 152.26C40.5392 153.139 39.1489 154.101 37.916 155.129C38.0677 155.185 38.2188 155.24 38.3717 155.295C39.6676 154.394 40.956 153.416 42.2391 152.39C42.0999 152.348 41.9603 152.304 41.8214 152.26Z" fill="#8F7ECE"/>
<path d="M46.674 153.762C45.4167 154.696 44.1366 155.817 43.0117 156.952C43.0467 156.964 43.0806 156.977 43.1132 156.988C43.2074 157.023 43.3068 157.056 43.4042 157.089C44.622 156.097 45.9057 154.994 47.062 153.879C46.9328 153.84 46.8037 153.801 46.674 153.762Z" fill="#8F7ECE"/>
<path d="M51.7753 155.325C50.4975 156.242 49.2367 157.354 47.9922 158.668C48.1356 158.716 48.2778 158.764 48.4221 158.812C49.6609 157.74 50.9503 156.528 52.1398 155.439C52.0184 155.401 51.897 155.364 51.7753 155.325Z" fill="#8F7ECE"/>
<path d="M56.8038 156.908C55.5816 157.862 54.0372 159.085 52.8242 160.308C52.9827 160.362 53.1401 160.416 53.298 160.469C54.5749 159.361 55.8414 158.113 57.12 157.011C57.0149 156.978 56.9086 156.942 56.8038 156.908Z" fill="#8F7ECE"/>
<path d="M61.5693 158.533C61.4191 158.48 61.2695 158.426 61.1213 158.375C59.8329 159.45 58.5302 160.658 57.2812 161.871C57.4816 161.945 57.682 162.023 57.8809 162.103C57.9483 162.035 58.0145 161.968 58.0807 161.902C59.197 160.784 60.4145 159.595 61.5693 158.533Z" fill="#8F7ECE"/>
<path d="M65.7093 160.139C65.5923 160.085 65.4738 160.03 65.3554 159.978C65.0244 160.34 64.6904 160.709 64.3374 161.07C63.3711 162.059 62.2824 163.137 61.4883 164.259C61.6112 164.374 61.7344 164.492 61.8549 164.609C63.1493 163.242 64.4238 161.627 65.7093 160.139Z" fill="#8F7ECE"/>
<path d="M66.0312 166.937C66.1687 166.959 66.3053 166.975 66.4403 166.985C67.271 166.046 68.1052 164.988 68.929 164.006C68.9198 163.893 68.9071 163.783 68.8905 163.673C67.936 164.743 66.9872 165.887 66.0312 166.937Z" fill="#8F7ECE"/>
<path fill-rule="evenodd" clip-rule="evenodd" d="M66.9835 168.96C67.7489 168.69 69.0848 168.98 70.3816 169.343C70.9358 169.5 71.83 169.765 71.7472 170.283C71.6486 170.9 70.5864 170.759 70.2061 170.708C69.0035 170.543 67.5823 170.1 66.896 169.642C66.7974 169.476 66.8529 169.14 66.9835 168.96Z" fill="white"/>
<path fill-rule="evenodd" clip-rule="evenodd" d="M70.6548 168.061C70.6129 166.745 73.4448 167.138 73.1782 168.198C73.0627 168.656 71.6241 168.98 70.9917 168.659C70.7658 168.543 70.6625 168.287 70.6548 168.061Z" fill="white"/>
<path d="M26.8079 168.479C27.3149 169.999 28.9558 170.818 30.4627 170.307L37.379 167.968C37.5916 167.899 37.707 167.664 37.634 167.452C37.5633 167.235 37.3327 167.12 37.1186 167.193L30.2017 169.532C29.1205 169.897 27.9446 169.309 27.5824 168.221C27.2178 167.132 27.8027 165.946 28.8836 165.582L36.874 162.879C37.631 162.624 38.4516 163.034 38.706 163.797C38.9581 164.557 38.5519 165.385 37.7949 165.637L31.1915 167.872C30.7468 168.024 30.2617 167.78 30.1121 167.332C29.9619 166.883 30.2047 166.396 30.6479 166.243L35.5357 164.593C35.7483 164.522 35.8637 164.289 35.7901 164.074C35.7195 163.859 35.4903 163.744 35.2762 163.816L30.3894 165.467C29.5192 165.764 29.0472 166.716 29.3408 167.595C29.6323 168.47 30.5814 168.944 31.4513 168.652L38.0547 166.419C39.2359 166.019 39.8745 164.725 39.4773 163.536C39.0801 162.346 37.7964 161.702 36.6166 162.101L28.6244 164.804C27.1163 165.313 26.3032 166.961 26.8079 168.479Z" fill="#B1BC00"/>
<path d="M121.733 160.159C121.599 160.2 121.459 160.196 121.332 160.156C121.134 160.09 120.966 159.931 120.899 159.716L117.967 150.147C117.9 149.93 117.951 149.704 118.078 149.538C118.161 149.432 118.275 149.348 118.408 149.307L138.825 143.675C139.181 143.564 139.552 143.765 139.661 144.121L142.197 152.4C142.306 152.753 142.11 153.132 141.757 153.24L122.499 159.894L121.733 160.159Z" fill="#4D3D87"/>
<path d="M108.993 159.865L100.742 162.426L99.0898 160.732L98.168 159.785L108.032 156.725L108.993 159.865Z" fill="#B1BC00"/>
<path d="M114.538 163.939L110.21 165.282C109.769 165.419 109.295 165.171 109.159 164.721L108.154 161.448C108.019 161.002 107.544 160.746 107.101 160.887L104.284 161.76C103.841 161.899 103.368 161.65 103.23 161.2L102.537 158.935C102.401 158.49 102.651 158.014 103.093 157.875L105.912 157C106.353 156.863 106.606 156.391 106.469 155.94L105.464 152.667C105.329 152.221 105.579 151.743 106.021 151.606L110.348 150.262C110.796 150.124 111.265 150.379 111.402 150.823L115.095 162.877C115.234 163.328 114.984 163.8 114.538 163.939Z" fill="#4D3D87"/>
<path d="M114.39 164.148C114.218 164.202 114.034 164.195 113.874 164.145C113.619 164.06 113.403 163.855 113.316 163.575L109.542 151.254C109.457 150.976 109.52 150.684 109.684 150.467C109.791 150.335 109.935 150.227 110.109 150.172L136.403 142.919C136.856 142.776 137.337 143.035 137.477 143.493L140.743 154.152C140.884 154.612 140.63 155.099 140.177 155.239L115.378 163.806L114.39 164.148Z" fill="#B1BC00"/>
<path fill-rule="evenodd" clip-rule="evenodd" d="M131.559 145.708C132.246 146.031 133.519 145.886 134.762 145.668C135.291 145.574 136.149 145.41 136.118 144.919C136.084 144.338 135.08 144.368 134.723 144.382C133.587 144.422 132.223 144.704 131.541 145.066C131.432 145.211 131.453 145.53 131.559 145.708Z" fill="white"/>
<path fill-rule="evenodd" clip-rule="evenodd" d="M134.898 146.891C134.738 148.11 137.411 148.009 137.26 146.998C137.194 146.559 135.881 146.122 135.265 146.363C135.043 146.45 134.925 146.676 134.898 146.891Z" fill="white"/>
<path fill-rule="evenodd" clip-rule="evenodd" d="M113.475 156.527C114.2 156.978 114.848 158.267 115.412 159.574C115.651 160.133 116.025 161.042 115.552 161.317C114.986 161.644 114.397 160.678 114.188 160.332C113.526 159.235 112.947 157.774 112.865 156.905C112.932 156.715 113.242 156.539 113.475 156.527Z" fill="white"/>
<path fill-rule="evenodd" clip-rule="evenodd" d="M116.632 158.95C117.671 158.045 119.224 160.632 118.189 161.114C117.741 161.321 116.526 160.353 116.368 159.623C116.312 159.36 116.452 159.108 116.632 158.95Z" fill="white"/>
<path d="M98.9512 168.94L97.943 169.217L91.9803 170.198C91.5255 170.341 91.0458 170.079 90.9038 169.622L87.6385 158.963C87.4981 158.505 87.7493 158.018 88.2064 157.876L94.6694 154.965C94.844 154.912 95.0254 154.918 95.1872 154.97C95.4437 155.054 95.6595 155.258 95.7429 155.538L99.5192 167.858C99.6041 168.137 99.5411 168.43 99.3764 168.645C99.2716 168.78 99.1249 168.885 98.9512 168.94Z" fill="#4D3D87"/>
<path fill-rule="evenodd" clip-rule="evenodd" d="M91.645 166.222C90.9054 165.808 89.8821 162.504 91.0209 162.223C91.9496 161.996 92.7852 164.932 92.3586 165.84C92.2479 166.076 92.1081 166.185 91.645 166.222Z" fill="white"/>
<path fill-rule="evenodd" clip-rule="evenodd" d="M93.2938 161.772C92.3266 162.372 91.8801 160.698 92.4649 160.351C93.2519 159.883 94.1479 161.243 93.2938 161.772Z" fill="white"/>
<path fill-rule="evenodd" clip-rule="evenodd" d="M90.4337 160.833C89.4231 161.211 88.7643 158.659 89.7283 158.437C90.1344 158.344 90.3084 158.594 90.561 159.066C90.9348 159.762 91.1396 160.569 90.4337 160.833Z" fill="white"/>
<path fill-rule="evenodd" clip-rule="evenodd" d="M103.791 126.619C103.859 125.401 105.021 123.712 106.261 122.121C106.791 121.44 107.67 120.353 108.327 120.762C109.12 121.253 108.317 122.649 108.03 123.144C107.115 124.722 105.696 126.438 104.674 127.13C104.393 127.174 103.961 126.904 103.791 126.619Z" fill="white"/>
<path fill-rule="evenodd" clip-rule="evenodd" d="M106.325 119.382C104.498 118.687 106.657 114.981 107.955 115.957C108.518 116.382 108.138 118.565 107.338 119.257C107.049 119.504 106.643 119.501 106.325 119.382Z" fill="white"/>
<path fill-rule="evenodd" clip-rule="evenodd" d="M106.476 109.447C105.806 109.269 105.666 108.267 105.901 107.285C106.089 106.496 106.809 105.071 107.595 105.565C107.945 105.783 108.162 106.57 107.988 107.391C107.786 108.355 107.339 109.674 106.476 109.447Z" fill="white"/>
<path fill-rule="evenodd" clip-rule="evenodd" d="M54.1898 112.242C52.1324 113.193 52.2927 107.293 54.2637 108.339C55.2924 108.882 54.7256 111.276 54.1898 112.242Z" fill="white"/>
<path fill-rule="evenodd" clip-rule="evenodd" d="M51.9362 115.504C52.1274 115.062 52.761 114.263 53.6115 114.719C54.7221 115.314 54.8239 117.857 55.054 118.857C55.3358 120.074 56.4075 122.235 55.38 123.19C53.9146 124.549 52.8358 121.083 52.5125 119.876C52.343 119.234 52.2367 118.589 52.1188 118.039C51.9175 117.097 51.5648 116.353 51.9362 115.504Z" fill="white"/>
</g>
<defs>
<clipPath id="clip0_5687_274">
<rect width="164" height="153" fill="white" transform="translate(0 20)"/>
</clipPath>
</defs>
</svg>
